/vscmnt/brussel_pixiu_data/_data_brussel/112/vsc11236/PredSimResults/SUBJ10mtu3D/worker7.mot
version=1
nRows=11
nColumns=50
inDegrees=yes
endheader
                time	         pelvis_tilt	         pelvis_list	     pelvis_rotation	           pelvis_tx	           pelvis_ty	           pelvis_tz	       hip_flexion_r	     hip_adduction_r	      hip_rotation_r	        knee_angle_r	       ankle_angle_r	         mtp_angle_r	       hip_flexion_l	     hip_adduction_l	      hip_rotation_l	        knee_angle_l	       ankle_angle_l	         mtp_angle_l	    lumbar_extension	      lumbar_bending	     lumbar_rotation	 ercspn_r/activation	 intobl_r/activation	 extobl_r/activation	    abd_r/activation	    add_r/activation	hamstrings_r/activation	bifemsh_r/activation	glut_max_r/activation	iliopsoas_r/activation	rect_fem_r/activation	  vasti_r/activation	gastroc_r/activation	 soleus_r/activation	tib_ant_r/activation	 ercspn_l/activation	 intobl_l/activation	 extobl_l/activation	    abd_l/activation	    add_l/activation	hamstrings_l/activation	bifemsh_l/activation	glut_max_l/activation	iliopsoas_l/activation	rect_fem_l/activation	  vasti_l/activation	gastroc_l/activation	 soleus_l/activation	tib_ant_l/activation	
          1.10602778	         -4.97497509	         -0.48737760	          7.98052742	          1.33829361	          0.82213029	         -0.01351071	         31.65162931	         -2.15212203	         -6.39886234	         -6.47017636	          2.13893382	          0.26888779	        -16.00081403	          0.10787921	          2.25313981	         -4.52419851	          7.51901512	         26.42527502	         -7.16036301	         -1.14617072	         -4.91138005	          0.11409803	          0.18262664	          0.01000006	          0.01184335	          0.08760868	          0.12123906	          0.30790796	          0.02061269	          0.08478439	          0.01000019	          0.01000004	          0.01000015	          0.01000001	          0.30036488	          0.07392116	          0.01000000	          0.01000003	          0.06089637	          0.01000004	          0.01374989	          0.24619949	          0.01156586	          0.32117700	          0.01000015	          0.01000001	          0.34349211	          0.22702151	          0.02135303	
          1.11708805	         -4.99949447	         -0.45805808	          8.10156901	          1.35374313	          0.82073013	         -0.01351004	         31.49385482	         -2.02231280	         -6.02317385	         -7.92159901	          1.82687148	          0.26607831	        -16.18443869	          0.02252705	          1.96573172	         -6.05819870	          6.86416360	         28.06392829	         -6.99890458	         -0.73085313	         -5.15913289	          0.09633913	          0.15420149	          0.01000007	          0.01000000	          0.11370347	          0.10458909	          0.27509144	          0.06122521	          0.07158800	          0.01000005	          0.01000000	          0.01787515	          0.01184362	          0.32876434	          0.10665951	          0.01000001	          0.01000004	          0.05141807	          0.01000237	          0.01678932	          0.20787944	          0.01184475	          0.27118699	          0.01000010	          0.01000002	          0.31434604	          0.21826410	          0.01802951	
          1.12814833	         -5.01656008	         -0.44091780	          8.17822176	          1.36946102	          0.81953479	         -0.01343248	         31.20227598	         -1.90157729	         -5.60509461	         -9.29232487	          1.37028609	          0.25749923	        -16.25421504	         -0.07509765	          1.64101370	         -7.82034318	          6.08553697	         29.65343368	         -6.82042225	         -0.29279831	         -5.38777108	          0.09074939	          0.13020060	          0.01000006	          0.03827257	          0.09600599	          0.09059982	          0.23227455	          0.09357028	          0.06044559	          0.01000003	          0.01000000	          0.01509295	          0.01000021	          0.43026620	          0.11481200	          0.01000000	          0.01000006	          0.04341503	          0.01000013	          0.01418150	          0.17552376	          0.01000118	          0.22897774	          0.01000018	          0.01000002	          0.26764338	          0.20455832	          0.01522328	
          1.13920861	         -5.02794165	         -0.42138567	          8.20540473	          1.38524130	          0.81867408	         -0.01323698	         30.86193269	         -1.77591920	         -5.26756411	        -10.54668176	          0.79330734	          0.24275841	        -16.13530696	         -0.16840262	          1.27719628	         -9.91226659	          5.18478813	         31.11597542	         -6.65052773	          0.14385289	         -5.59066950	          0.10297926	          0.10993535	          0.01000004	          0.08844590	          0.13002264	          0.07656302	          0.19612188	          0.11180770	          0.05103745	          0.01000003	          0.01000000	          0.01274379	          0.01000000	          0.49136798	          0.14383435	          0.01000000	          0.01000003	          0.03665764	          0.01000016	          0.01488484	          0.14820413	          0.01000029	          0.19333820	          0.01000017	          0.01000004	          0.22598565	          0.18886265	          0.01285384	
          1.15026889	         -5.03321234	         -0.40036960	          8.18820634	          1.40094485	          0.81825256	         -0.01292991	         30.54582671	         -1.64343766	         -5.00388361	        -11.86342935	          0.35422594	          0.22585813	        -15.77373143	         -0.25971585	          0.86961378	        -12.40375466	          4.17339799	         32.32162174	         -6.50030048	          0.57770738	         -5.76753335	          0.11319728	          0.09282431	          0.01000004	          0.13289576	          0.17362405	          0.06693450	          0.16559623	          0.13199507	          0.04309366	          0.01000004	          0.01000001	          0.01076028	          0.01000001	          0.50928549	          0.17920358	          0.01000000	          0.01000003	          0.03095201	          0.03275911	          0.02087849	          0.12513670	          0.01000045	          0.16324582	          0.01000014	          0.01000006	          0.19081180	          0.16748761	          0.01085319	
          1.16132917	         -5.03221219	         -0.37720474	          8.13045411	          1.41647663	          0.81836128	         -0.01252446	         30.28136747	         -1.50897702	         -4.80040861	        -13.30440833	          0.17767111	          0.20754272	        -15.12738409	         -0.35110146	          0.40424676	        -15.34593187	          3.07040920	         33.08170381	         -6.37303496	          1.00501073	         -5.91933031	          0.11572714	          0.07837654	          0.01000004	          0.16457767	          0.21571036	          0.05813573	          0.13982179	          0.14552274	          0.03638629	          0.01000005	          0.01875389	          0.01000004	          0.01000003	          0.48864899	          0.21164920	          0.01000001	          0.01000003	          0.02613444	          0.07697837	          0.01781489	          0.10565963	          0.01000002	          0.13783722	          0.01000008	          0.01000001	          0.16111263	          0.14141878	          0.01000001	
          1.17238944	         -5.02561668	         -0.34643107	          8.03276801	          1.43176777	          0.81907152	         -0.01203495	         30.04913037	         -1.37686095	         -4.64446404	        -14.82951450	          0.30768486	          0.19220431	        -14.16253402	         -0.44258462	         -0.13738785	        -18.77545807	          1.88386413	         33.19776049	         -6.27001684	          1.41680152	         -6.04615717	          0.12068106	          0.06617751	          0.01000003	          0.18109327	          0.24950216	          0.05507367	          0.11805905	          0.14474125	          0.03072290	          0.01000004	          0.03359668	          0.01000003	          0.01000001	          0.45251406	          0.22553604	          0.01000001	          0.01000003	          0.02206671	          0.14150581	          0.02006522	          0.08921411	          0.01000001	          0.11638337	          0.01000006	          0.01000000	          0.13603602	          0.11940745	          0.01000001	
          1.18344972	         -5.01456391	         -0.30180271	          7.89626121	          1.44681758	          0.82036757	         -0.01148661	         29.77681348	         -1.24562999	         -4.50586974	        -16.30075330	          0.71117002	          0.19068358	        -12.87591044	         -0.53838174	         -0.75644110	        -22.65742972	          0.50738924	         32.65591016	         -6.18556537	          1.80602518	         -6.14673190	          0.11752918	          0.05587722	          0.01000004	          0.18782907	          0.26400345	          0.05428957	          0.09968360	          0.13749656	          0.02594099	          0.01000004	          0.05036687	          0.01000004	          0.01000001	          0.38829649	          0.22879561	          0.01000001	          0.01000003	          0.01863211	          0.20336159	          0.02141412	          0.07532828	          0.01000000	          0.09826873	          0.01000005	          0.01000000	          0.11486251	          0.10082211	          0.01000000	
          1.19451000	         -5.00094917	         -0.23920764	          7.72120386	          1.46163235	          0.82218361	         -0.01090094	         29.38915119	         -1.11119666	         -4.35089958	        -17.57239836	          1.33925005	          0.23368743	        -11.29090227	         -0.64638673	         -1.43835051	        -26.88660449	         -1.20164935	         31.51048890	         -6.11535515	          2.16856783	         -6.21939095	          0.10090411	          0.04718013	          0.01000003	          0.18875964	          0.25961364	          0.05899904	          0.08416823	          0.11658149	          0.02190337	          0.01000004	          0.07446391	          0.01000002	          0.01000001	          0.32785970	          0.22715343	          0.01000001	          0.01000003	          0.01573209	          0.24920197	          0.01855496	          0.06360378	          0.01000000	          0.08297357	          0.01000004	          0.01000000	          0.09698457	          0.08512951	          0.01000000	
          1.20557028	         -4.98725359	         -0.15433038	          7.50624907	          1.47619399	          0.82444215	         -0.01028546	         28.83576203	         -0.97109461	         -4.14845224	        -18.53139957	          2.08317814	          0.33588261	         -9.44908954	         -0.77081629	         -2.15018921	        -31.31897628	         -3.32770730	         29.77196823	         -6.06120979	          2.49849666	         -6.26375997	          0.08519876	          0.03983672	          0.01000006	          0.18429075	          0.23619468	          0.06402196	          0.07106777	          0.09843603	          0.01849419	          0.01000003	          0.08269137	          0.01000006	          0.01000002	          0.27682959	          0.21762442	          0.01000033	          0.01000003	          0.01328345	          0.25709446	          0.08229460	          0.05370426	          0.01000003	          0.07005905	          0.01000003	          0.01000000	          0.08188927	          0.07187941	          0.02336852	
          1.21663055	         -4.97497387	         -0.04846052	          7.25533615	          1.49046201	          0.82701184	         -0.00965007	         28.12781429	         -0.83033370	         -3.90003954	        -19.17481025	          2.84356558	          0.48883671	         -7.40989871	         -0.90967161	         -2.83523182	        -35.84032329	         -5.55180884	         27.12054628	         -6.02898187	          2.79516427	         -6.28117833	          0.07193789	          0.03363628	          0.01000004	          0.18289781	          0.19943189	          0.06895223	          0.06000635	          0.08311499	          0.01561564	          0.01000002	          0.10335436	          0.01000002	          0.01000001	          0.24252501	          0.22619512	          0.04930946	          0.01000006	          0.01121596	          0.21707865	          0.07571625	          0.07308736	          0.01184361	          0.05915463	          0.01000002	          0.00999999	          0.06914351	          0.06069164	          0.16777650	
